HIERARCHY
ROOT Hips
{
	OFFSET -14.64140 90.27770 -84.91600
	CHANNELS 6 Xposition Yposition Zposition Zrotation Xrotation Yrotation
	JOINT Spine
	{
		OFFSET 0.00000 13.20850 -1.60436
		CHANNELS 3 Zrotation Xrotation Yrotation
		JOINT Spine1
		{
			OFFSET 0.00000 8.61716 0.00000
			CHANNELS 3 Zrotation Xrotation Yrotation
			JOINT Spine2
			{
				OFFSET 0.00000 8.61717 0.00000
				CHANNELS 3 Zrotation Xrotation Yrotation
				JOINT Spine3
				{
					OFFSET 0.00000 8.61717 0.00000
					CHANNELS 3 Zrotation Xrotation Yrotation
					JOINT Neck
					{
						OFFSET 0.00000 11.07920 1.10792
						CHANNELS 3 Zrotation Xrotation Yrotation
						JOINT Neck1
						{
							OFFSET 0.00000 7.08032 0.00000
							CHANNELS 3 Zrotation Xrotation Yrotation
							JOINT Head
							{
								OFFSET 0.00000 7.08031 0.00000
								CHANNELS 3 Zrotation Xrotation Yrotation
								End site
								{
									OFFSET 0.00000 0.00000 0.00000
								}
							}
						}
					}
					JOINT RightShoulder
					{
						OFFSET -0.01000 7.91373 5.19711
						CHANNELS 3 Zrotation Xrotation Yrotation
						JOINT RightArm
						{
							OFFSET -18.41580 0.00000 0.00000
							CHANNELS 3 Zrotation Xrotation Yrotation
							JOINT RightForeArm
							{
								OFFSET -29.11090 0.00000 0.00000
								CHANNELS 3 Zrotation Xrotation Yrotation
								JOINT RightHand
								{
									OFFSET -24.65040 0.00000 0.00000
									CHANNELS 3 Zrotation Xrotation Yrotation
									JOINT RightHandThumb1
									{
										OFFSET -5.35114 -0.85590 3.97906
										CHANNELS 3 Zrotation Xrotation Yrotation
										JOINT RightHandThumb2
										{
											OFFSET -4.52789 0.00000 0.00000
											CHANNELS 3 Zrotation Xrotation Yrotation
											JOINT RightHandThumb3
											{
												OFFSET -2.46976 0.00000 0.00000
												CHANNELS 3 Zrotation Xrotation Yrotation
												End site
												{
													OFFSET 0.00000 0.00000 0.00000
												}
											}
										}
									}
									JOINT RightHandIndex1
									{
										OFFSET -14.26970 0.00000 2.88139
										CHANNELS 3 Zrotation Xrotation Yrotation
										JOINT RightHandIndex2
										{
											OFFSET -5.48836 0.00000 0.00000
											CHANNELS 3 Zrotation Xrotation Yrotation
											JOINT RightHandIndex3
											{
												OFFSET -3.01859 0.00000 0.00000
												CHANNELS 3 Zrotation Xrotation Yrotation
												End site
												{
													OFFSET 0.00000 0.00000 0.00000
												}
											}
										}
									}
									JOINT RightHandMiddle1
									{
										OFFSET -14.26970 0.00000 -0.09147
										CHANNELS 3 Zrotation Xrotation Yrotation
										JOINT RightHandMiddle2
										{
											OFFSET -6.17441 0.00000 0.00000
											CHANNELS 3 Zrotation Xrotation Yrotation
											JOINT RightHandMiddle3
											{
												OFFSET -3.56743 0.00000 0.00000
												CHANNELS 3 Zrotation Xrotation Yrotation
												End site
												{
													OFFSET 0.00000 0.00000 0.00000
												}
											}
										}
									}
									JOINT RightHandRing1
									{
										OFFSET -12.69180 0.00000 -3.06433
										CHANNELS 3 Zrotation Xrotation Yrotation
										JOINT RightHandRing2
										{
											OFFSET -5.62556 0.00000 0.00000
											CHANNELS 3 Zrotation Xrotation Yrotation
											JOINT RightHandRing3
											{
												OFFSET -3.56744 0.00000 0.00000
												CHANNELS 3 Zrotation Xrotation Yrotation
												End site
												{
													OFFSET 0.00000 0.00000 0.00000
												}
											}
										}
									}
									JOINT RightHandPinky1
									{
										OFFSET -11.11390 0.00000 -6.03719
										CHANNELS 3 Zrotation Xrotation Yrotation
										JOINT RightHandPinky2
										{
											OFFSET -4.52789 0.00000 0.00000
											CHANNELS 3 Zrotation Xrotation Yrotation
											JOINT RightHandPinky3
											{
												OFFSET -2.46976 0.00000 0.00000
												CHANNELS 3 Zrotation Xrotation Yrotation
												End site
												{
													OFFSET 0.00000 0.00000 0.00000
												}
											}
										}
									}
								}
							}
						}
					}
					JOINT LeftShoulder
					{
						OFFSET 0.01000 7.91373 5.19711
						CHANNELS 3 Zrotation Xrotation Yrotation
						JOINT LeftArm
						{
							OFFSET 18.41580 0.00000 0.00000
							CHANNELS 3 Zrotation Xrotation Yrotation
							JOINT LeftForeArm
							{
								OFFSET 29.11090 0.00000 0.00000
								CHANNELS 3 Zrotation Xrotation Yrotation
								JOINT LeftHand
								{
									OFFSET 24.65040 0.00000 0.00000
									CHANNELS 3 Zrotation Xrotation Yrotation
									JOINT LeftHandThumb1
									{
										OFFSET 5.35114 -0.85590 3.97906
										CHANNELS 3 Zrotation Xrotation Yrotation
										JOINT LeftHandThumb2
										{
											OFFSET 4.52789 0.00000 0.00000
											CHANNELS 3 Zrotation Xrotation Yrotation
											JOINT LeftHandThumb3
											{
												OFFSET 2.46977 0.00000 0.00000
												CHANNELS 3 Zrotation Xrotation Yrotation
												End site
												{
													OFFSET 0.00000 0.00000 0.00000
												}
											}
										}
									}
									JOINT LeftHandIndex1
									{
										OFFSET 14.26970 0.00000 2.88139
										CHANNELS 3 Zrotation Xrotation Yrotation
										JOINT LeftHandIndex2
										{
											OFFSET 5.48836 0.00000 0.00000
											CHANNELS 3 Zrotation Xrotation Yrotation
											JOINT LeftHandIndex3
											{
												OFFSET 3.01859 0.00000 0.00000
												CHANNELS 3 Zrotation Xrotation Yrotation
												End site
												{
													OFFSET 0.00000 0.00000 0.00000
												}
											}
										}
									}
									JOINT LeftHandMiddle1
									{
										OFFSET 14.26970 0.00000 -0.09147
										CHANNELS 3 Zrotation Xrotation Yrotation
										JOINT LeftHandMiddle2
										{
											OFFSET 6.17440 0.00000 0.00000
											CHANNELS 3 Zrotation Xrotation Yrotation
											JOINT LeftHandMiddle3
											{
												OFFSET 3.56744 0.00000 0.00000
												CHANNELS 3 Zrotation Xrotation Yrotation
												End site
												{
													OFFSET 0.00000 0.00000 0.00000
												}
											}
										}
									}
									JOINT LeftHandRing1
									{
										OFFSET 12.69180 0.00000 -3.06433
										CHANNELS 3 Zrotation Xrotation Yrotation
										JOINT LeftHandRing2
										{
											OFFSET 5.62556 0.00000 0.00000
											CHANNELS 3 Zrotation Xrotation Yrotation
											JOINT LeftHandRing3
											{
												OFFSET 3.56744 0.00000 0.00000
												CHANNELS 3 Zrotation Xrotation Yrotation
												End site
												{
													OFFSET 0.00000 0.00000 0.00000
												}
											}
										}
									}
									JOINT LeftHandPinky1
									{
										OFFSET 11.11390 0.00000 -6.03719
										CHANNELS 3 Zrotation Xrotation Yrotation
										JOINT LeftHandPinky2
										{
											OFFSET 4.52789 0.00000 0.00000
											CHANNELS 3 Zrotation Xrotation Yrotation
											JOINT LeftHandPinky3
											{
												OFFSET 2.46976 0.00000 0.00000
												CHANNELS 3 Zrotation Xrotation Yrotation
												End site
												{
													OFFSET 0.00000 0.00000 0.00000
												}
											}
										}
									}
								}
							}
						}
					}
					JOINT pCube4
					{
						OFFSET 0.00000 10.91090 1.10792
						CHANNELS 3 Zrotation Xrotation Yrotation
						End site
						{
							OFFSET 0.00000 0.00000 0.00000
						}
					}
				}
			}
		}
	}
	JOINT RightUpLeg
	{
		OFFSET -9.98441 0.00000 0.00000
		CHANNELS 3 Zrotation Xrotation Yrotation
		JOINT RightLeg
		{
			OFFSET 0.00000 -42.11790 0.00000
			CHANNELS 3 Zrotation Xrotation Yrotation
			JOINT RightFoot
			{
				OFFSET 0.00000 -45.00020 -0.00001
				CHANNELS 3 Zrotation Xrotation Yrotation
				JOINT RightForeFoot
				{
					OFFSET 0.00000 -3.74820 0.00000
					CHANNELS 3 Zrotation Xrotation Yrotation
					JOINT RightToeBase
					{
						OFFSET 0.00000 0.06325 14.43120
						CHANNELS 3 Zrotation Xrotation Yrotation
						End site
						{
							OFFSET 0.00000 0.00000 0.00000
						}
					}
				}
			}
		}
	}
	JOINT LeftUpLeg
	{
		OFFSET 9.98441 0.00000 0.00000
		CHANNELS 3 Zrotation Xrotation Yrotation
		JOINT LeftLeg
		{
			OFFSET 0.00000 -42.11800 0.00000
			CHANNELS 3 Zrotation Xrotation Yrotation
			JOINT LeftFoot
			{
				OFFSET 0.00000 -45.00070 0.00000
				CHANNELS 3 Zrotation Xrotation Yrotation
				JOINT LeftForeFoot
				{
					OFFSET 0.00000 -3.74824 0.00000
					CHANNELS 3 Zrotation Xrotation Yrotation
					JOINT LeftToeBase
					{
						OFFSET 0.00000 0.06325 14.43110
						CHANNELS 3 Zrotation Xrotation Yrotation
						End site
						{
							OFFSET 0.00000 0.00000 0.00000
						}
					}
				}
			}
		}
	}
}
MOTION
Frames: 4
Frame Time: 0.050000
-0.015014144161451803 0.01341283253869666 0.03304864785459854 -0.04941509526483434 0.012219858923829088 -0.012973518127258924 -3.003076922016303 0.512720508779082 -0.7258467587222617 -0.994579463376117 3.777931616735578 0.3593293623014896 -1.366101831079461 -2.1465105297976734 0.09915694080458161 0.007912184537913466 0.27069699657451063 -0.6637572097655754 0.7907546473604151 14.127375229501663 -1.6049381804276976 0.20673151331497922 0.38375050779933156 -6.422645814326183 0.9165864743810919 -14.568273076984566 -0.473169641635409 -7.441857328207759 2.4666693457649367 -13.201322160779247 75.08271599093527 10.576672513337423 31.55925396688527 26.83093625283556 5.693617306596391 76.79655916484332 18.07940926251874 -0.3132349431339402 -1.5698247697316643 4.551344213693058 -0.09832561269574701 -1.5565300039562717 -0.04652043766903738 0.014143918965417217 -56.253856897159714 -0.033060913508504 -0.012872278838612675 -56.26409508486369 -38.73124456999381 -0.008625257110376962 0.01494792536482612 0.039217247080529836 -0.02369049166432419 0.041715295919957214 0.012253207081555483 -0.03250186095062747 -0.01762359133051236 -36.717967165537786 -0.015101894464179887 -0.005152178964842971 0.03705163843460011 0.008726486839830638 -0.021007758120316064 0.03683995393592225 0.04825722608414801 -0.026243130829096212 -19.710914945538622 -0.013747143419758901 0.019564138048811536 0.023249158866172168 -0.013101738834644095 0.018414073542643506 -0.010593969398223239 -0.00043923053960242636 0.0010588921551643008 24.078831385345335 0.015076891926485163 0.01043717344721038 28.85118066312752 -0.04564259888195573 0.002405570460429724 28.90037580149317 0.012088046471384796 -0.01674744243923246 5.813711075392144 1.3608950413714076 12.026735282591266 -67.81200083897133 24.758144056766014 -12.656790366997894 -15.137532694899285 -1.0999224396789062 -69.69587364447766 -8.857337102371488 3.922128950409189 -1.727850835731231 -0.5050652410425776 0.06519853673562373 -8.088802403382523 0.010106813647399834 -0.01732442877184008 44.59000673896718 -0.014154525546965455 0.02234891532576009 44.52018079046893 12.470422687075791 0.03473450609520688 0.02417584307363622 -0.03619970578220277 -0.01845328538344351 0.002327476082451936 -0.03518848896385075 -0.02526934991016479 -0.027570135202809664 11.075507185267107 0.045944526790188844 -0.0017878874373996503 -0.013037819740107533 0.020637095968108587 0.03810140206297431 -0.004158431602287507 -0.017486008700578516 0.04771307706411996 4.7643202373213525 0.02114743091163712 0.024143717712808262 0.005929371162386577 0.024752059149623754 -0.03185209919830229 0.01779729459865748 -0.02691091416962599 -0.024915381469521086 -5.635588093515437 -0.03237573215995345 -0.023060474534018216 -6.719996651736888 -0.04811305678440847 -0.040972526307060844 -6.709647163573059 0.004477882808791949 0.002606114952371038 0.03656565068539266 0.03311161720673688 -0.018470427133088652 8.040227387397252 3.445104617483316 -19.229810742699698 0.0037965939991337016 10.365313399605572 0.015306722832044812 -5.595156661678385 -15.615464087208688 3.2017017631804374 0.023160108035813663 -0.007065427164779985 -0.049350559070448205 0.013543935870842523 4.688700536257695 -0.0344996580395527 12.450303865203496 -8.2571903866983 6.887626270351059 0.029553781858952 46.36233102843914 -0.007780052538835878 -4.365736823570509 -14.76862223543976 -3.7954142476903554 -0.012205921303267505 -0.026566492655403437 0.035300409801625514 -0.03831784048658366 -10.726591775116377 -0.010018154112623287 
-0.016249709161375303 -0.020565493859771806 -0.0038975325238742187 -0.023770357151071193 0.0004282483047617329 -0.032728109219433275 -2.9209095461047774 0.4662803112507059 -0.7058527629224899 -0.9881261997429448 3.7760767879898136 0.4381890773620434 -1.3816427774225046 -2.1987137445942704 -0.06472983038458235 0.08843755014895985 0.20945049013113928 -0.7300759038018605 0.8231908281854307 14.083544887821361 -1.8221374262024188 0.175442656098533 0.3041886363249988 -6.95971515729512 0.9325136359140664 -14.485285848426452 -0.537213032597638 -7.4286313443053595 2.37253442518249 -13.2218470877724 74.53306424744623 9.265797286798769 31.271712392731708 32.1714928645965 5.888329274183039 78.70574436016194 19.012723170303367 -0.3388691679164334 -1.7950056276537356 4.509809402992912 -0.15023729022078927 -1.5969733747579964 -0.01842119652760659 0.039915363351243155 -56.28090477855899 -0.029368908844396656 -0.004565917670975342 -56.24771848793519 -38.766635938718146 0.01772481814419427 -0.031567294516929925 0.03200856536617635 -0.010195589998569007 -0.027065133051930174 -0.008186851307646516 -0.01329063033179888 -0.015528559623482669 -36.73816773052846 -0.038936372088523345 -0.049958000038294224 -0.033097301969762384 -0.044310894966699974 0.02944738524564446 0.0002327888258535114 0.04457470008916174 -0.013250072408746212 -19.735387189735295 -0.0036603918989077063 0.0015677793223375903 -0.025391533265884884 0.029615175479230055 -0.003363078007171011 0.04407718341736896 0.038890661302492774 0.0001484979380037157 24.078670181258193 0.04840488882864072 0.041354422143149557 28.829649402170293 -0.025664526829786063 -0.017997224536198876 28.8983379572004 0.00023501600231765537 -0.022546591009217316 6.088952898000891 1.481678572289982 11.994284971192982 -67.47611971657203 23.02106223984468 -13.9543675467185 -20.89264893874694 2.4308893089511905 -74.27303747146088 -9.305910971715367 3.9194662975764465 -2.000568244159354 -0.45978428749901396 0.11267339628386464 -8.124174846835343 0.0012920859029224086 -0.0010598357892225667 44.52475440636545 -0.004829329651383404 0.010121060933043434 44.555940564232834 12.420351199574384 0.03406280829571422 0.034294233729381576 -0.03874116026737713 0.04747486041172556 0.018478254211042145 0.027718915019255913 0.03661969527467866 0.0022554801688388837 11.136930745537148 -0.014323252647864585 -0.022358057271786892 -0.002631084062526599 0.0032980132294928035 -0.015863470529024006 0.0280553069747201 -0.003504651748254931 -0.012299179334804851 4.802217539133475 0.0243292980275687 -0.0414125950511302 0.03008255293918144 -0.031736369586623146 0.04317932822319194 0.027104158042838267 -0.012183692307749969 -0.019482697456666375 -5.616327061321343 0.04762544979371107 -0.015445023297508666 -6.702286645861906 0.022187644582730596 -0.04533421435087878 -6.759416804634482 -0.03312179595103068 0.007576770886749967 -0.008040889808940393 0.03518948046442276 -0.025798130624482232 8.045145755628544 3.469773636289243 -19.21941530445979 -0.025231636435237025 10.43732861812202 -0.01770621791378699 -5.641843023689698 -15.662013274733466 3.1770933598314994 -0.004842494258081373 0.03314844896762883 0.03989908042855532 0.047141676440153636 4.653814324827273 0.006221485273511779 12.433316884259945 -8.212386462893086 6.922525727653702 -0.03465219858609003 46.36286591233519 -0.03968509536450658 -4.325745841266019 -14.760209659931338 -3.85475037030562 -0.008040726389871503 -0.010237484829114482 0.012181597249032845 -0.006182836806065234 -10.71118512211651 0.022167485731791423 
0.00419765558884613 -0.03152382460227357 -0.03180773253023141 -0.010584422694574271 -0.03966770321106567 0.033784014076939255 -2.80236591397613 0.2524264002929011 -0.693228423708731 -0.8927970832750672 3.694766742440923 0.40902669284990023 -1.3286024022416325 -2.277637171437391 -0.14151402716098535 0.18166822581897465 0.15883287109057664 -0.7669550875961032 0.7408354936133383 14.09339606495097 -1.9772804127784007 0.18018754027600753 0.42006111437995597 -7.295016163661892 0.958342336562517 -14.441597562334021 -0.5808966660647168 -7.557099739067183 2.4543030578676843 -13.262994788656531 73.99414574279044 6.786681176467064 31.633677449695075 39.300934460450655 5.476113579757486 82.7193265481382 19.805784041893013 -0.34360812925664436 -1.9559255823276205 4.502597097295839 -0.09380781234152506 -1.6305882474564946 -0.016571229053905564 0.01118088479549178 -56.20656298295692 0.043866922661762876 0.02233357421017833 -56.212483005749824 -38.789030843337436 -0.014807263980982152 0.04792075502336678 0.014930555008246122 -0.006138226111606292 -0.03129939988598389 -0.03127046628780226 -0.01942533509321438 0.02709829833279664 -36.722113752421315 0.01068433990161835 -0.008750439606961844 0.0299581306956822 0.029568975378833483 -0.004510077416537915 -0.010454145058527533 -6.968530837907665e-05 0.010764789165510458 -19.761097273610194 0.025673197468509046 -0.0260618777684152 -0.04264859803380603 0.03380610908758427 0.035789882602977316 -0.0325186589681048 0.005967782949124705 0.019022559703288977 24.044513627722026 0.023495496998305786 -0.007249197928875685 28.817062159940292 0.0023968898043639246 -0.024351868341450523 28.88767309817835 0.005493079403113657 -0.010802467752859961 6.460903503060613 1.545673552658089 11.949425415682539 -67.23886368979852 21.143776426969218 -15.27423814593895 -29.06186065295875 6.057804225741077 -81.1489439909914 -9.959525469775999 3.913768988652817 -2.333344353422531 -0.45769244528209424 0.023288942916769986 -8.134196924426293 0.008903656374018 -0.012724130098710245 44.55385708248746 -0.019814035489944638 -0.0426396625985413 44.55351726852508 12.434799206150199 -0.04700264629187806 0.017685608926862124 -0.03017873022541068 0.01729091649431441 0.012056204198683057 -0.015129103226915904 -0.0011104199121654246 0.02222844345206494 11.132017346390063 -0.0026523600040609537 -0.041011474146159715 -0.034879794859655845 0.03060541612343624 0.018437484211287918 0.029224877827068303 -0.015531241389789549 -0.010737353413298614 4.807945543552403 0.02413738022870362 0.01668167235181401 0.041861350062300885 0.02080870781435239 -0.009846100224984375 0.017290928754481957 0.002599681439620054 0.029441741741785852 -5.59419734935531 0.024500815927382538 -0.025934356147829952 -6.7542921904465185 0.008991762635479506 -0.013081599439031815 -6.768109375997689 -0.029721442773225405 -0.008367450462530563 -0.03825513792791871 0.020585188756843585 -0.03317400969559722 8.04989246859515 3.457076860863196 -19.26008430274121 0.01650002777928972 10.423146361931401 -0.009050323026309853 -5.5976828407568755 -15.661831405366835 3.2153706859086966 -0.046500461169086196 0.001755152088024828 -1.6724642090803715e-05 -0.012512302980066009 4.708427845328583 0.02379376460641577 12.492194701003976 -8.236833935976538 6.905339179827457 -0.023816580582354537 46.357518216988844 0.03510116716529473 -4.340325695693765 -14.729419410134025 -3.8239033286941804 -0.0317415263315701 0.0203918600244544 -0.009475222911319428 -0.04309356842702673 -10.698644047834389 0.003552392046998085 
-0.03975753885510429 -0.020386468693532795 0.04689142088065479 0.0067288796671230045 -0.035344700754676425 -0.04872348129556122 -2.700194976873843 0.06843447541395978 -0.7809225872757809 -0.8842264390500816 3.663608549413147 0.4043219042613093 -1.3361390456836828 -2.290223252464497 -0.259081141272153 0.16284715314712767 0.049168501175254536 -0.6981911410745109 0.7563678755338461 14.178703417301264 -2.1653110110796687 0.2029687222912743 0.48311934796836054 -7.386702044912551 0.9655973619041066 -14.405218433952731 -0.5996065163781547 -7.786597794313193 2.4631560682881255 -13.269236972390493 73.14372718960051 3.354797672781345 32.44111129728238 46.4803841920499 4.304269156116372 87.40325073495292 20.267044360655227 -0.36607474629155873 -2.090165945325897 4.549790753417428 -0.10612839922772696 -1.6026967739834566 0.04219188796430518 0.015738045142281165 -56.209922188288594 -0.015607033982414807 -0.004537382351099401 -56.26880852320429 -38.815896040209 -0.021392745459119913 0.04835332997309617 0.04816322054149697 -0.0402088132601455 -0.041706881179752825 -0.03269348905496969 -0.005037010640830868 0.010267473144115566 -36.711836216560876 -0.027335772275498285 -0.01830092906183122 -0.024565776379010376 -0.019990384568543094 -0.0431624716715857 -0.02780199605100558 0.03841963200757374 -0.01867400017540375 -19.776538734220566 -0.009047398315292306 -0.031072835183074653 -0.0017323136800968528 -0.021226646490849925 -0.008603919325552704 -0.03151044933932758 -0.04796344718114399 -0.0055608752083716895 24.045336580390988 0.024981998463217327 0.046571729003118185 28.84853626731268 0.012590448151588239 -0.009135799443621249 28.88097550575166 0.00989810120187401 0.012898822616986235 6.803225909582298 1.6074015000664894 11.978841173540607 -67.07919916251177 19.73851405020943 -16.46524295549041 -37.84502372950611 8.471232198058928 -88.54936073240091 -10.562685772086908 3.941695129003094 -2.6682444842059305 -0.5047332726275136 0.049543012039873144 -8.138902170271377 -0.007510060489707492 0.007166907622656195 44.595478438584244 0.003828340394338514 -0.008449054067605757 44.559287430632544 12.421214838827419 0.011217822506422026 -0.0465633852024603 0.023134346775059447 -0.010525051510295142 0.010975296067291723 -0.010453561047570378 -0.01885914676405203 0.04251352533183924 11.113349615080768 0.02116951596892857 0.00796294922900527 -0.021350860198968466 0.019345707159134494 -0.03405725978001489 -0.04287665804465493 0.02501562977915351 -0.02046819536020006 4.72957075696313 0.01838070314299641 0.024626368116878607 0.048334329210716974 -0.01848000145310188 0.026889369422114555 -0.015307727645933494 0.04822629017124139 0.0037760116063968313 -5.5686371155972205 -0.04903258680838406 -0.023129930628266557 -6.711655327739781 -0.013416361982044236 0.04699456891780642 -6.740883690791567 0.01273593238481297 0.01694697917519245 0.034946439106750216 -0.02058460370151277 -0.008538107621199678 8.037854900392876 3.519932686885833 -19.19655850157298 -0.032119642212741 10.436121782001129 0.002253920666715592 -5.572736132303615 -15.666755115247852 3.2016900100771744 0.012312818547464861 0.04981843100414403 -0.02840866323274022 -0.03862704118710849 4.69997452055677 0.010861712127741844 12.455490886976936 -8.269627174836913 6.866697960999644 -0.010383316173196275 46.330331286615866 0.03355811625859756 -4.335346204531243 -14.79511984281012 -3.8289595176489306 0.02577995392356849 -0.014022039682706997 0.010410808683081113 0.04565079626324828 -10.730069819602022 -0.04216841818025987 
